<svg width="24" height="24" viewBox="0 0 24 24" fill="none" xmlns="http://www.w3.org/2000/svg">
<g clip-path="url(#clip0_377_378)">
<path fill-rule="evenodd" clip-rule="evenodd" d="M14.9998 19C15 19.5046 14.8094 19.9906 14.4664 20.3605C14.1233 20.7305 13.653 20.9572 13.1498 20.995L12.9998 21H10.9998C10.4953 21.0002 10.0093 20.8096 9.6393 20.4665C9.26932 20.1234 9.04269 19.6532 9.00485 19.15L8.99985 19H14.9998ZM11.9998 2C13.8148 1.99997 15.5589 2.70489 16.8641 3.96607C18.1693 5.22726 18.9336 6.94609 18.9958 8.76L18.9998 9V12.764L20.8218 16.408C20.9014 16.567 20.9412 16.7429 20.9378 16.9206C20.9345 17.0984 20.8881 17.2727 20.8027 17.4286C20.7173 17.5845 20.5953 17.7174 20.4473 17.8158C20.2993 17.9143 20.1297 17.9754 19.9528 17.994L19.8378 18H4.16185C3.98401 18.0001 3.80882 17.957 3.65127 17.8745C3.49372 17.792 3.35853 17.6725 3.25727 17.5264C3.156 17.3802 3.0917 17.2116 3.06985 17.0351C3.04801 16.8586 3.06928 16.6795 3.13185 16.513L3.17785 16.408L4.99985 12.764V9C4.99985 7.14348 5.73735 5.36301 7.0501 4.05025C8.36286 2.7375 10.1433 2 11.9998 2ZM11.9998 4C10.7114 4.00007 9.47269 4.49754 8.54207 5.38866C7.61146 6.27978 7.06077 7.49575 7.00485 8.783L6.99985 9V12.764C6.99986 13.012 6.95374 13.2579 6.86385 13.489L6.78885 13.659L5.61885 16H18.3818L17.2118 13.658C17.1009 13.4363 17.032 13.1959 17.0088 12.949L16.9998 12.764V9C16.9998 7.67392 16.4731 6.40215 15.5354 5.46447C14.5977 4.52678 13.3259 4 11.9998 4Z" fill="black"/>
<circle cx="19.5" cy="6.5" r="4.5" fill="#ED2A2A"/>
<path d="M17.6023 9V8.48864L19.5227 6.38636C19.7481 6.14015 19.9337 5.92614 20.0795 5.74432C20.2254 5.56061 20.3333 5.38826 20.4034 5.22727C20.4754 5.06439 20.5114 4.89394 20.5114 4.71591C20.5114 4.51136 20.4621 4.33428 20.3636 4.18466C20.267 4.03504 20.1345 3.91951 19.9659 3.83807C19.7973 3.75663 19.608 3.71591 19.3977 3.71591C19.1742 3.71591 18.9792 3.76231 18.8125 3.85511C18.6477 3.94602 18.5199 4.07386 18.429 4.23864C18.34 4.40341 18.2955 4.59659 18.2955 4.81818H17.625C17.625 4.47727 17.7036 4.17803 17.8608 3.92045C18.018 3.66288 18.232 3.46212 18.5028 3.31818C18.7756 3.17424 19.0814 3.10227 19.4205 3.10227C19.7614 3.10227 20.0634 3.17424 20.3267 3.31818C20.59 3.46212 20.7964 3.65625 20.946 3.90057C21.0956 4.14489 21.1705 4.41667 21.1705 4.71591C21.1705 4.92992 21.1316 5.1392 21.054 5.34375C20.9782 5.5464 20.8456 5.77273 20.6562 6.02273C20.4688 6.27083 20.2083 6.57386 19.875 6.93182L18.5682 8.32955V8.375H21.2727V9H17.6023Z" fill="white"/>
</g>
<defs>
<clipPath id="clip0_377_378">
<rect width="24" height="24" fill="white"/>
</clipPath>
</defs>
</svg>
