<svg width="118" height="30" viewBox="0 0 118 30" fill="none" xmlns="http://www.w3.org/2000/svg">
<path d="M9.16 21.28C8.04 21.28 6.94667 21.0933 5.88 20.72C4.84 20.3467 3.97333 19.7733 3.28 19C2.61333 18.2267 2.28 17.2667 2.28 16.12C2.28 15.8267 2.30667 15.5467 2.36 15.28C2.44 14.9867 2.49333 14.6933 2.52 14.4C1.88 13.76 1.37333 12.9867 1 12.08C0.626667 11.1467 0.44 10.24 0.44 9.36C0.44 9.22667 0.506667 8.96 0.64 8.56C0.773333 8.16 0.933333 7.77333 1.12 7.4C1.30667 7.02667 1.45333 6.8 1.56 6.72H1.6L1.84 6.84C1.97333 6.84 2.06667 6.73333 2.12 6.52C2.17333 6.28 2.22667 6.12 2.28 6.04C2.65333 6.04 2.96 5.89333 3.2 5.6C3.46667 5.28 3.73333 5 4 4.76L4.16 4.92C4.34667 4.81333 4.68 4.66667 5.16 4.48C5.66667 4.26667 6.13333 4.05333 6.56 3.84C6.98667 3.6 7.17333 3.37333 7.12 3.16C7.73333 2.92 8.52 2.74667 9.48 2.64C10.44 2.50667 11.4133 2.42667 12.4 2.4C13.3867 2.34667 14.2 2.32 14.84 2.32C15.72 2.32 16.7333 2.42667 17.88 2.64C19.0533 2.82667 20.2133 3.13333 21.36 3.56C22.5333 3.96 23.5733 4.49333 24.48 5.16C25.4133 5.8 26.08 6.58667 26.48 7.52L26.56 7.56L26.24 7.84L26.44 7.92L26.16 8.2L26.96 8.92L26.24 9.32L26.52 9.48H26.48C26.5333 9.88 26.4133 10.32 26.12 10.8C25.8267 11.28 25.4533 11.7733 25 12.28C24.5733 12.7867 24.1333 13.2667 23.68 13.72C23.2533 14.1467 22.9067 14.5067 22.64 14.8C22.4 14.8267 22.1733 14.8933 21.96 15C21.7733 15.1067 21.56 15.1867 21.32 15.24L19.84 16.36L19.36 16.76L19.72 16.96L19 17.2L18.72 17.48L18.52 17.4C18.2 17.56 18.0533 17.7333 18.08 17.92C18.1067 18.08 18.0133 18.2667 17.8 18.48L17.72 18.4L17.6 18.68L17.08 19.08L16.52 19.04C16.9467 18.7467 17.2933 18.4267 17.56 18.08C17.32 18.16 17.0533 18.2667 16.76 18.4C16.4667 18.5333 16.2533 18.72 16.12 18.96L16.4 19.32L16.8 19.52L15.96 19.64L15.68 19.16L15.48 19.08L15.4 19.32L15.52 19.52L15.4 19.8C15.24 19.8533 15.1067 19.9333 15 20.04C14.8933 20.12 14.7733 20.2133 14.64 20.32C14.0533 20.2667 13.4133 20.3733 12.72 20.64C12.0267 20.9067 11.36 21.04 10.72 21.04L10.36 21.2C10.1733 21.2267 9.97333 21.24 9.76 21.24C9.57333 21.2667 9.37333 21.28 9.16 21.28ZM8.6 19.48C10.0133 19.4 11.4267 19.1067 12.84 18.6C14.28 18.0933 15.6533 17.4267 16.96 16.6C18.2667 15.7733 19.4267 14.8267 20.44 13.76C21.4533 12.6933 22.2267 11.5733 22.76 10.4L22.68 10.08C22.9733 9.25333 23.12 8.48 23.12 7.76C23.1467 6.61333 22.7867 5.70667 22.04 5.04C21.2933 4.34667 20.3733 3.85333 19.28 3.56C18.1867 3.24 17.1067 3.08 16.04 3.08C14.8133 3.08 13.5333 3.22667 12.2 3.52C10.8667 3.78667 9.6 4.12 8.4 4.52C7.22667 4.92 6.25333 5.30667 5.48 5.68C5.05333 5.89333 4.52 6.25333 3.88 6.76C3.26667 7.26667 2.72 7.89333 2.24 8.64C1.76 9.36 1.52 10.1867 1.52 11.12C1.52 12.0267 1.96 12.7867 2.84 13.4C3.16 12.6533 3.68 11.8533 4.4 11C5.14667 10.1467 5.98667 9.33333 6.92 8.56C7.88 7.76 8.85333 7.08 9.84 6.52C10.8533 5.93333 11.8 5.54667 12.68 5.36L13.48 5.64C13.8267 5.29333 14.32 5.02667 14.96 4.84C15.6267 4.65333 16.32 4.52 17.04 4.44C17.76 4.36 18.36 4.32 18.84 4.32C19.1333 4.32 19.4267 4.37333 19.72 4.48C20.0133 4.58667 20.2933 4.70667 20.56 4.84C20.4 4.86667 20.24 4.89333 20.08 4.92C19.92 4.92 19.7467 4.92 19.56 4.92C19.32 4.92 19.1733 4.93333 19.12 4.96C19.0667 4.98667 18.8933 5 18.6 5C17.9067 5 16.9867 5.21333 15.84 5.64C14.72 6.06667 13.52 6.62667 12.24 7.32C10.9867 8.01333 9.8 8.77333 8.68 9.6C7.56 10.4 6.64 11.2 5.92 12C5.22667 12.7733 4.88 13.4533 4.88 14.04C5.25333 14.52 5.72 14.8667 6.28 15.08C6.86667 15.2933 7.34667 15.4667 7.72 15.6C7.98667 15.6533 8.25333 15.7333 8.52 15.84C8.81333 15.9467 9.09333 16.04 9.36 16.12C9.36 16.28 9.18667 16.36 8.84 16.36C8.49333 16.3333 8.05333 16.2933 7.52 16.24C7.22667 16.1867 6.73333 16.0933 6.04 15.96C5.34667 15.8 4.70667 15.5733 4.12 15.28C4.01333 15.4667 3.92 15.6667 3.84 15.88C3.78667 16.0667 3.76 16.3067 3.76 16.6C3.76 17.8267 4.2 18.64 5.08 19.04C5.96 19.4133 7.13333 19.56 8.6 19.48ZM6.2 4.44C6.49333 4.33333 6.70667 4.2 6.84 4.04L6.28 4.2L6.2 4.44ZM4.16 5.4L4.36 5.24L4.32 5.04C4.29333 5.09333 4.26667 5.16 4.24 5.24C4.21333 5.29333 4.18667 5.34667 4.16 5.4ZM23.56 13.56L23.8 13.2L23.2 13.08L23.12 13.2V13.28L23.56 13.56ZM22.88 13.92L23.24 13.84L23.08 13.52L22.88 13.92ZM19.96 16.72L19.92 16.68C20.0533 16.5467 20.2 16.44 20.36 16.36C20.5467 16.28 20.7333 16.2 20.92 16.12H20.96L20.76 16.52C20.6267 16.5733 20.4933 16.6133 20.36 16.64C20.2267 16.64 20.0933 16.6667 19.96 16.72ZM15 19.68L15.32 19.6L15.08 19.32L15 19.56V19.68ZM32.0141 23.36L31.4141 22.4C31.3874 22.24 31.3341 22.08 31.2541 21.92C31.2007 21.76 31.1741 21.5867 31.1741 21.4C31.1741 21.1333 31.1874 20.8933 31.2141 20.68C31.2407 20.44 31.2674 20.1867 31.2941 19.92L31.5741 19.28L31.5341 19.2C31.5874 19.0933 31.6274 18.9867 31.6541 18.88C31.7074 18.7467 31.7474 18.6267 31.7741 18.52L31.6141 18.4C31.4274 18.4 31.1607 18.5867 30.8141 18.96C30.4941 19.3067 30.1207 19.6533 29.6941 20C29.2941 20.3467 28.8274 20.52 28.2941 20.52C27.9474 20.52 27.6274 20.4133 27.3341 20.2C27.0407 19.9867 26.9074 19.6667 26.9341 19.24L26.8941 19.16C27.1874 18.6267 27.4407 18.08 27.6541 17.52C27.8674 16.96 28.0941 16.4133 28.3341 15.88L28.0941 15.44L27.9741 15.48L27.7741 15.4L27.3741 15.8L26.8141 15.92L26.8941 16.12H26.8141L26.4141 16.24L26.3341 16.4H26.0941L26.0541 16.64C25.9207 16.7733 25.7741 16.92 25.6141 17.08C25.4541 17.24 25.2674 17.3333 25.0541 17.36L22.6541 19.64L22.6141 19.52C22.6141 19.3333 22.6807 19.1867 22.8141 19.08C22.9474 18.9467 23.0674 18.8267 23.1741 18.72L23.2141 18.64L23.3341 18.56L23.3741 18.6L23.4941 18.32H23.4541C23.5074 18.2667 23.5607 18.2 23.6141 18.12C23.6941 18.0133 23.7874 17.96 23.8941 17.96H23.9741C23.9741 17.96 23.9741 17.9333 23.9741 17.88C24.1341 17.64 24.3474 17.4267 24.6141 17.24H24.7341L24.8541 17.12L24.8141 17.04L25.2141 16.88C25.1874 16.6133 25.4007 16.32 25.8541 16C26.3074 15.68 26.8007 15.4 27.3341 15.16C27.8674 14.8933 28.2407 14.76 28.4541 14.76C28.7474 14.76 29.0941 14.84 29.4941 15C29.8941 15.1333 30.0941 15.3867 30.0941 15.76C30.0941 16.5067 29.9607 17.1067 29.6941 17.56C29.4274 18.0133 29.2807 18.3067 29.2541 18.44L29.3741 18.52C29.6941 18.52 29.9474 18.4267 30.1341 18.24C30.3207 18.0267 30.5074 17.8133 30.6941 17.6C30.9074 17.3867 31.1607 17.2667 31.4541 17.24C31.4274 17.2133 31.4407 17.2 31.4941 17.2C31.5474 17.1733 31.5741 17.1867 31.5741 17.24C31.6807 17.0533 31.9207 16.76 32.2941 16.36C32.6674 15.9333 33.0541 15.5333 33.4541 15.16C33.8541 14.7867 34.1341 14.6 34.2941 14.6C34.5874 14.6 34.9207 14.7067 35.2941 14.92C35.6674 15.1333 35.8541 15.4 35.8541 15.72C35.8541 15.8533 35.7474 16.1067 35.5341 16.48C35.3474 16.8267 35.1207 17.2 34.8541 17.6C34.5874 18 34.3207 18.36 34.0541 18.68C33.8141 18.9733 33.6274 19.1467 33.4941 19.2C33.2541 19.6267 32.9207 20.12 32.4941 20.68C32.0941 21.2133 31.8941 21.7467 31.8941 22.28C31.8941 22.4667 31.9207 22.64 31.9741 22.8C32.0274 22.96 32.0541 23.12 32.0541 23.28L32.0141 23.36ZM37.3425 22.68C36.9158 22.68 36.5692 22.4933 36.3025 22.12C36.0358 21.7733 35.9025 21.3867 35.9025 20.96C35.9025 20.64 35.9958 20.16 36.1825 19.52C36.3958 18.8533 36.6492 18.16 36.9425 17.44C37.2358 16.6933 37.5425 16.0267 37.8625 15.44C38.1825 14.8533 38.4758 14.4667 38.7425 14.28C39.1158 13.6933 39.4492 13.1467 39.7425 12.64C39.3158 12.72 38.8892 12.8133 38.4625 12.92C38.0358 13 37.6358 13.12 37.2625 13.28C37.0758 13.52 36.8625 13.64 36.6225 13.64C36.5425 13.5867 36.4492 13.5333 36.3425 13.48C36.2358 13.4267 36.1425 13.36 36.0625 13.28L36.1025 13.2H36.0625V13.12C36.0625 12.9867 36.0358 12.8667 35.9825 12.76C35.9558 12.6267 35.9292 12.5067 35.9025 12.4C35.8758 12.3733 35.8625 12.3067 35.8625 12.2C35.8625 11.8533 36.0225 11.6267 36.3425 11.52C36.6892 11.4133 37.0358 11.36 37.3825 11.36C37.8892 11.36 38.2358 11.4 38.4225 11.48L38.8225 11.4H39.8225C40.0092 11.4 40.1825 11.4 40.3425 11.4C40.5025 11.4 40.6625 11.3867 40.8225 11.36L40.9825 11.12L40.9425 10.96C41.0225 10.7733 41.1958 10.4667 41.4625 10.04C41.7292 9.61333 42.0092 9.16 42.3025 8.68C42.5958 8.2 42.8492 7.78667 43.0625 7.44C43.3025 7.06667 43.4225 6.88 43.4225 6.88C43.4225 6.72 43.5558 6.62667 43.8225 6.6C44.0892 6.57333 44.2625 6.56 44.3425 6.56C44.6358 6.56 45.0358 6.65333 45.5425 6.84C46.0492 7 46.3025 7.28 46.3025 7.68C46.3025 7.92 46.2092 8.12 46.0225 8.28C45.8358 8.41333 45.6358 8.50667 45.4225 8.56V8.6C45.4225 8.76 45.3025 8.94667 45.0625 9.16C44.8492 9.37333 44.5958 9.56 44.3025 9.72C44.0092 9.88 43.7825 9.98667 43.6225 10.04C43.5425 10.0667 43.4358 10.1733 43.3025 10.36C43.1958 10.52 43.1158 10.64 43.0625 10.72V10.88C42.9558 10.96 42.8358 11.0533 42.7025 11.16C42.5958 11.24 42.5025 11.3467 42.4225 11.48C42.5558 11.5067 42.6892 11.52 42.8225 11.52C42.9558 11.52 43.0892 11.52 43.2225 11.52C43.4358 11.52 43.6358 11.52 43.8225 11.52C44.0358 11.52 44.2358 11.5333 44.4225 11.56L45.6625 11.72C45.3425 11.9867 44.9825 12.1467 44.5825 12.2C44.1825 12.2267 43.7692 12.24 43.3425 12.24C42.9425 12.2133 42.5558 12.28 42.1825 12.44C41.9958 12.4933 41.7425 12.6533 41.4225 12.92C41.1292 13.1867 40.8625 13.48 40.6225 13.8C40.3825 14.0933 40.2625 14.3467 40.2625 14.56L39.3425 15.8C39.0758 15.9333 38.9425 16.1333 38.9425 16.4C38.9425 16.6667 38.7958 16.8 38.5025 16.8L37.9425 18.08C37.9158 18.24 37.8758 18.4933 37.8225 18.84C37.7958 19.16 37.6892 19.3467 37.5025 19.4C37.5025 19.7467 37.4892 20.0933 37.4625 20.44C37.4358 20.76 37.4225 21.08 37.4225 21.4L37.5025 21.56H37.8225C38.3558 21.0267 38.9025 20.52 39.4625 20.04C40.0492 19.5333 40.5958 19 41.1025 18.44L41.3025 18.36H41.3825L41.6225 18.04L41.7825 17.96L41.7425 17.92L41.9825 17.72C42.1958 17.32 42.5425 16.9867 43.0225 16.72L43.0625 16.8C43.0625 16.9333 42.8892 17.2267 42.5425 17.68C42.1958 18.1067 41.7558 18.6133 41.2225 19.2C40.7158 19.76 40.1825 20.3067 39.6225 20.84C39.0892 21.3733 38.6092 21.8133 38.1825 22.16C37.7558 22.5067 37.4758 22.68 37.3425 22.68ZM50.7663 23.72L49.8063 23.6C49.4863 23.3867 49.2329 23.1067 49.0463 22.76C48.8863 22.44 48.7396 22.12 48.6063 21.8H48.4063C47.9529 21.8 47.6596 21.88 47.5263 22.04C47.4196 22.2267 47.3129 22.4 47.2063 22.56C47.0996 22.7467 46.8329 22.84 46.4063 22.84C46.1129 22.84 45.8063 22.8 45.4863 22.72C45.1663 22.6667 44.8463 22.64 44.5263 22.64C44.3396 22.64 44.1663 22.6667 44.0063 22.72C43.8729 22.7733 43.7129 22.8 43.5263 22.8C43.1263 22.8 42.6996 22.7333 42.2463 22.6C41.7929 22.4667 41.3929 22.2533 41.0463 21.96C40.7263 21.6667 40.5663 21.2933 40.5663 20.84C40.5663 20.2 40.8196 19.6933 41.3263 19.32C41.8596 18.92 42.4063 18.68 42.9663 18.6L42.8863 18.68C42.5929 18.8667 42.2463 19.1067 41.8463 19.4C41.4463 19.6667 41.2463 20.0133 41.2463 20.44C41.2463 20.8133 41.4729 21.1067 41.9263 21.32C42.4063 21.5333 42.8063 21.64 43.1263 21.64L43.3263 21.56C43.6463 21.64 44.0196 21.68 44.4463 21.68C45.0863 21.68 45.7529 21.6267 46.4463 21.52C47.1663 21.4133 47.7663 21.3067 48.2463 21.2V20.92C48.0063 20.5733 47.8863 20.24 47.8863 19.92L48.3263 18.84L48.0463 18.44L48.4063 17.76V17.64L48.0863 17.6L47.8863 17.76V17.72L48.0463 17.48C47.9663 17.1333 48.0196 16.7467 48.2063 16.32C48.4196 15.8933 48.6329 15.4667 48.8463 15.04C49.0863 14.5867 49.2063 14.1867 49.2063 13.84C49.4196 13.6533 49.6596 13.2933 49.9263 12.76C50.2196 12.2 50.4996 11.6267 50.7663 11.04C51.0329 10.4533 51.2463 10.0133 51.4063 9.72C51.9129 8.70667 52.4863 7.73333 53.1263 6.8C53.7663 5.84 54.4463 4.90667 55.1663 4C54.8996 4.08 54.6329 4.16 54.3663 4.24C54.1263 4.32 53.8596 4.36 53.5663 4.36C53.3796 4.49333 52.9929 4.64 52.4063 4.8C51.8196 4.96 51.1929 5.13333 50.5263 5.32C49.8863 5.48 49.3263 5.65333 48.8463 5.84C48.3663 6 48.1263 6.16 48.1263 6.32L48.2463 6.52L48.8863 6.08L49.0463 6.16L49.2863 5.96L49.3263 6.12C49.3263 6.44 49.2463 6.72 49.0863 6.96L48.9263 6.6L48.5663 6.84L48.6463 7.12L48.4063 7.2C48.5396 7.28 48.6463 7.38667 48.7263 7.52C48.8329 7.65333 48.9263 7.78667 49.0063 7.92C48.3929 7.94667 47.8063 8.16 47.2463 8.56C46.7129 8.93333 46.1396 9.16 45.5263 9.24C45.3929 9.42667 45.2196 9.54667 45.0063 9.6C44.7929 9.65333 44.5796 9.68 44.3663 9.68C44.2329 9.68 44.0329 9.56 43.7663 9.32C43.4996 9.05333 43.2596 8.77333 43.0463 8.48C42.8596 8.16 42.7663 7.93333 42.7663 7.8C42.7663 7.50667 42.9396 7.2 43.2863 6.88C43.6329 6.56 43.8996 6.32 44.0863 6.16L43.6463 6.96C43.9663 6.74667 44.4196 6.52 45.0063 6.28C45.5929 6.04 46.1929 5.81333 46.8063 5.6C47.4463 5.36 48.0196 5.13333 48.5263 4.92C49.0329 4.68 49.3796 4.48 49.5663 4.32C50.6063 4.02667 51.6596 3.76 52.7263 3.52C53.8196 3.25333 54.8996 3.06667 55.9663 2.96C56.0996 2.8 56.3129 2.56 56.6063 2.24C56.9263 1.89333 57.2463 1.58667 57.5663 1.32C57.8863 1.02667 58.1529 0.879999 58.3663 0.879999C58.8463 0.879999 59.2729 0.906665 59.6463 0.959998C60.0196 0.986666 60.2996 1.25333 60.4863 1.76C60.4863 2.05333 60.3663 2.32 60.1263 2.56C59.9129 2.77333 59.6996 2.94667 59.4863 3.08L59.8863 3.16C60.0996 3.08 60.2729 2.94667 60.4063 2.76L60.6463 2.72H60.7263C60.8863 2.72 61.0196 2.76 61.1263 2.84C61.2596 2.92 61.3796 3.01333 61.4863 3.12L61.9263 2.92C62.5929 2.92 63.4063 3.09333 64.3663 3.44C65.3263 3.76 66.2729 4.2 67.2063 4.76C68.1663 5.32 68.9529 5.96 69.5663 6.68C70.2063 7.37333 70.5263 8.10667 70.5263 8.88C70.5263 9.22667 70.4996 9.57333 70.4463 9.92C70.3929 10.24 70.3396 10.56 70.2863 10.88L70.0463 10.8L69.8463 10.96V11.04L70.1663 11.4C69.9796 11.9867 69.6863 12.5467 69.2863 13.08C68.9129 13.5867 68.4996 14.04 68.0463 14.44C67.6196 14.5467 67.1929 14.8267 66.7663 15.28C66.3396 15.7333 65.8996 16.0667 65.4463 16.28C65.1529 16.6267 64.8463 16.8667 64.5263 17C64.2063 17.1333 63.8996 17.4267 63.6063 17.88L63.2463 17.52L63.1663 17.64L63.2063 17.88C63.2063 18.0933 63.0063 18.2 62.6063 18.2C62.4996 18.2 62.3929 18.2 62.2863 18.2C62.2063 18.1733 62.1396 18.16 62.0863 18.16L61.8863 18.36L61.9263 18.68C61.8996 18.7067 61.7663 18.8 61.5263 18.96C61.3129 19.12 61.2063 19.1333 61.2063 19H61.1263C60.6729 19.2667 60.2596 19.52 59.8863 19.76L59.6063 19.56L59.4063 19.92C59.3796 19.8667 59.3263 19.7867 59.2463 19.68C59.1663 19.5467 59.0729 19.4667 58.9663 19.44L58.5263 19.92H58.4863L58.0063 19.68L57.5663 20L57.3663 19.84L56.6863 20.16L56.7263 20.2H57.0063L57.2463 20.44V20.48H57.1263L56.4863 20.32L56.0463 20.48L55.8063 20.44C56.0729 20.2267 56.3796 20.04 56.7263 19.88L56.4863 19.76L55.9663 20.16L55.6063 20V20.16C55.3663 20.2133 55.1929 20.32 55.0863 20.48V20.84L54.9263 20.88L54.4863 20.68C54.3529 20.7333 54.2196 20.7867 54.0863 20.84C53.9796 20.8933 53.8729 20.96 53.7663 21.04C53.2329 21.0933 52.7129 21.2267 52.2063 21.44C51.6996 21.68 51.1663 21.8 50.6063 21.8L50.2863 21.64L50.2463 22.64L50.5263 23.24H50.5663L50.8063 23.6V23.64L50.7663 23.72ZM50.3263 20.6C52.4596 19.96 54.5263 19.1867 56.5263 18.28C58.5529 17.3467 60.5396 16.3467 62.4863 15.28L62.6863 15.32L62.8863 15.28L62.8463 15.12L62.9663 14.96L63.1663 15.12L63.6463 14.76L63.6063 14.68L63.3663 14.6C63.4463 14.3867 63.7796 14.12 64.3663 13.8C64.9529 13.4533 65.5929 13.0533 66.2863 12.6C67.0063 12.12 67.6329 11.5733 68.1663 10.96C68.6996 10.32 68.9663 9.58667 68.9663 8.76C68.9663 7.85333 68.7129 7.10667 68.2063 6.52C67.6996 5.90667 67.0463 5.41333 66.2463 5.04C65.4463 4.66667 64.5663 4.38667 63.6063 4.2C62.6729 4.01333 61.7663 3.88 60.8863 3.8C60.0063 3.72 59.2463 3.68 58.6063 3.68C58.3396 3.94667 58.1396 4.22667 58.0063 4.52C57.8996 4.78667 57.7529 5.01333 57.5663 5.2C57.3796 5.38667 57.0596 5.48 56.6063 5.48L56.2863 5.76V6.16C55.8863 6.34667 55.5929 6.70667 55.4063 7.24C55.2196 7.74667 54.9929 8.17333 54.7263 8.52L54.6463 8.84L54.7663 8.96L54.0063 10.24L53.9263 10.56L53.7663 10.44C53.7663 10.6 53.6596 10.9333 53.4463 11.44C53.2329 11.92 52.9796 12.4667 52.6863 13.08C52.3929 13.6667 52.1263 14.24 51.8863 14.8C51.6729 15.36 51.5396 15.7867 51.4863 16.08C51.2996 16.2667 51.1263 16.68 50.9663 17.32C50.8063 17.9333 50.6729 18.56 50.5663 19.2C50.4596 19.84 50.3796 20.3067 50.3263 20.6ZM57.2063 19.68C57.4196 19.6 57.6196 19.4667 57.8063 19.28L57.6463 19.2C57.5396 19.2267 57.4329 19.28 57.3263 19.36C57.2463 19.4133 57.1529 19.4667 57.0463 19.52L57.2063 19.68ZM71.4847 20.08C71.0847 20.08 70.7514 19.9867 70.4847 19.8C70.218 19.5867 69.978 19.3067 69.7647 18.96H69.6847L69.7247 18.64L69.6447 18.68V18.44L69.8447 18.28H69.7647L69.5247 18.08H69.6047L69.6847 17.92V17.84L69.6047 17.64V17.56H69.5247L68.9647 17.28V17.16C68.778 16.9733 68.618 16.7733 68.4847 16.56C68.378 16.32 68.3247 16.0667 68.3247 15.8C68.3247 15.4267 68.4847 14.9867 68.8047 14.48C69.1514 13.9733 69.5514 13.52 70.0047 13.12C70.4847 12.72 70.9114 12.52 71.2847 12.52C71.4714 12.3333 71.738 12.24 72.0847 12.24L72.2047 12.12L72.4047 12.16C72.698 12.0267 73.018 11.9867 73.3647 12.04L73.4047 11.96H75.6447C75.858 11.96 76.1247 12.0133 76.4447 12.12C76.7914 12.2267 77.058 12.3067 77.2447 12.36C77.4847 12.6267 77.8047 12.84 78.2047 13C78.6047 13.1333 78.8047 13.4267 78.8047 13.88C78.8047 14.44 78.6447 14.9733 78.3247 15.48C78.0047 15.9867 77.6314 16.3867 77.2047 16.68H77.1647C77.138 16.76 77.0047 16.8933 76.7647 17.08C76.5514 17.24 76.3114 17.4133 76.0447 17.6C75.8047 17.76 75.6447 17.88 75.5647 17.96L75.4447 18.32C75.258 18.32 75.0847 18.3867 74.9247 18.52C74.7647 18.6267 74.6847 18.7733 74.6847 18.96C74.738 19.0667 74.858 19.16 75.0447 19.24C75.2314 19.2933 75.3914 19.32 75.5247 19.32L75.3647 19.4C74.5114 19.4 73.858 19.4667 73.4047 19.6C72.9514 19.7067 72.5914 19.8133 72.3247 19.92C72.058 20.0267 71.778 20.08 71.4847 20.08ZM72.5647 19.04C73.3914 18.64 73.9647 18.3333 74.2847 18.12C74.6314 17.88 74.8714 17.68 75.0047 17.52C75.138 17.3333 75.3114 17.0933 75.5247 16.8C75.738 16.5067 76.1247 16.0933 76.6847 15.56V15.48C76.578 15.48 76.4847 15.4667 76.4047 15.44C76.4314 15.2 76.4847 14.9733 76.5647 14.76C76.6714 14.52 76.7247 14.2667 76.7247 14C76.7247 13.52 76.538 13.1333 76.1647 12.84C75.818 12.52 75.418 12.36 74.9647 12.36C74.7247 12.36 74.4714 12.3867 74.2047 12.44C73.9647 12.4933 73.738 12.56 73.5247 12.64L73.0047 12.6C72.578 12.76 72.098 13 71.5647 13.32C71.058 13.64 70.618 14.0267 70.2447 14.48C69.8714 14.9067 69.6847 15.3867 69.6847 15.92C69.6847 16.1867 69.738 16.4133 69.8447 16.6L70.0047 16.64V16.52L70.2047 16.4L70.4847 15.8V15.64L70.7247 15.28L70.8047 15.32L70.9247 15.08L71.1247 14.96V14.92C71.2047 14.8933 71.2847 14.8667 71.3647 14.84C71.4714 14.8133 71.5647 14.7733 71.6447 14.72C71.6447 14.5067 71.738 14.3867 71.9247 14.36C72.1114 14.3067 72.218 14.1867 72.2447 14H72.4847L72.7647 13.68L72.9247 13.8L73.2847 13.56H73.6447V13.68C73.2447 13.7867 72.8047 14.08 72.3247 14.56C71.8447 15.0133 71.4447 15.52 71.1247 16.08C70.8047 16.64 70.658 17.1467 70.6847 17.6L70.7247 18.32C71.018 18.4533 71.3114 18.6133 71.6047 18.8C71.898 18.96 72.218 19.04 72.5647 19.04ZM71.4047 19.32L71.6447 19.2L70.7247 18.76L70.6447 18.8L70.8047 19.16L71.4047 19.32ZM81.6713 20.08C81.2713 20.08 80.9379 19.9867 80.6713 19.8C80.4046 19.5867 80.1646 19.3067 79.9513 18.96H79.8713L79.9113 18.64L79.8313 18.68V18.44L80.0313 18.28H79.9513L79.7113 18.08H79.7913L79.8713 17.92V17.84L79.7913 17.64V17.56H79.7113L79.1513 17.28V17.16C78.9646 16.9733 78.8046 16.7733 78.6713 16.56C78.5646 16.32 78.5113 16.0667 78.5113 15.8C78.5113 15.4267 78.6713 14.9867 78.9913 14.48C79.3379 13.9733 79.7379 13.52 80.1913 13.12C80.6713 12.72 81.0979 12.52 81.4713 12.52C81.6579 12.3333 81.9246 12.24 82.2713 12.24L82.3913 12.12L82.5913 12.16C82.8846 12.0267 83.2046 11.9867 83.5513 12.04L83.5913 11.96H85.8313C86.0446 11.96 86.3113 12.0133 86.6313 12.12C86.9779 12.2267 87.2446 12.3067 87.4313 12.36C87.6713 12.6267 87.9913 12.84 88.3913 13C88.7913 13.1333 88.9913 13.4267 88.9913 13.88C88.9913 14.44 88.8313 14.9733 88.5113 15.48C88.1913 15.9867 87.8179 16.3867 87.3913 16.68H87.3513C87.3246 16.76 87.1913 16.8933 86.9513 17.08C86.7379 17.24 86.4979 17.4133 86.2313 17.6C85.9913 17.76 85.8313 17.88 85.7513 17.96L85.6313 18.32C85.4446 18.32 85.2713 18.3867 85.1113 18.52C84.9513 18.6267 84.8713 18.7733 84.8713 18.96C84.9246 19.0667 85.0446 19.16 85.2313 19.24C85.4179 19.2933 85.5779 19.32 85.7113 19.32L85.5513 19.4C84.6979 19.4 84.0446 19.4667 83.5913 19.6C83.1379 19.7067 82.7779 19.8133 82.5113 19.92C82.2446 20.0267 81.9646 20.08 81.6713 20.08ZM82.7513 19.04C83.5779 18.64 84.1513 18.3333 84.4713 18.12C84.8179 17.88 85.0579 17.68 85.1913 17.52C85.3246 17.3333 85.4979 17.0933 85.7113 16.8C85.9246 16.5067 86.3113 16.0933 86.8713 15.56V15.48C86.7646 15.48 86.6713 15.4667 86.5913 15.44C86.6179 15.2 86.6713 14.9733 86.7513 14.76C86.8579 14.52 86.9113 14.2667 86.9113 14C86.9113 13.52 86.7246 13.1333 86.3513 12.84C86.0046 12.52 85.6046 12.36 85.1513 12.36C84.9113 12.36 84.6579 12.3867 84.3913 12.44C84.1513 12.4933 83.9246 12.56 83.7113 12.64L83.1913 12.6C82.7646 12.76 82.2846 13 81.7513 13.32C81.2446 13.64 80.8046 14.0267 80.4313 14.48C80.0579 14.9067 79.8713 15.3867 79.8713 15.92C79.8713 16.1867 79.9246 16.4133 80.0313 16.6L80.1913 16.64V16.52L80.3913 16.4L80.6713 15.8V15.64L80.9113 15.28L80.9913 15.32L81.1113 15.08L81.3113 14.96V14.92C81.3913 14.8933 81.4713 14.8667 81.5513 14.84C81.6579 14.8133 81.7513 14.7733 81.8313 14.72C81.8313 14.5067 81.9246 14.3867 82.1113 14.36C82.2979 14.3067 82.4046 14.1867 82.4313 14H82.6713L82.9513 13.68L83.1113 13.8L83.4713 13.56H83.8313V13.68C83.4313 13.7867 82.9913 14.08 82.5113 14.56C82.0313 15.0133 81.6313 15.52 81.3113 16.08C80.9913 16.64 80.8446 17.1467 80.8713 17.6L80.9113 18.32C81.2046 18.4533 81.4979 18.6133 81.7913 18.8C82.0846 18.96 82.4046 19.04 82.7513 19.04ZM81.5913 19.32L81.8313 19.2L80.9113 18.76L80.8313 18.8L80.9913 19.16L81.5913 19.32ZM94.8178 20.6C94.4178 20.6 94.1111 20.44 93.8978 20.12L92.9778 19.68C92.8711 19.44 92.8178 19.1467 92.8178 18.8C92.8178 18.24 92.9511 17.64 93.2178 17C93.5111 16.3333 93.7911 15.7733 94.0578 15.32C93.8711 15.2133 93.7111 15.08 93.5778 14.92C93.4445 14.76 93.3111 14.6 93.1778 14.44L93.0578 14.36C92.9511 14.4667 92.8311 14.56 92.6978 14.64C92.5645 14.72 92.4311 14.7733 92.2978 14.8C92.0578 15.04 91.7111 15.44 91.2578 16C90.8045 16.5333 90.3111 17.0933 89.7778 17.68C89.2445 18.24 88.7245 18.7333 88.2178 19.16C87.7378 19.5867 87.3511 19.8 87.0578 19.8L87.0178 19.72C87.0445 19.56 87.1645 19.3867 87.3778 19.2C87.6178 18.9867 87.7911 18.8267 87.8978 18.72C87.9511 18.5067 88.0845 18.32 88.2978 18.16C88.5111 18 88.7111 17.88 88.8978 17.8H88.9378L89.1778 17.44L89.3778 17.32L89.3378 17.28L89.6178 17.08C89.6711 16.9467 89.7511 16.8267 89.8578 16.72C89.9645 16.6133 90.0578 16.5067 90.1378 16.4V16.32C90.7245 15.8667 91.2578 15.3733 91.7378 14.84C92.2445 14.28 92.7645 13.7333 93.2978 13.2L93.3378 13.16L93.2978 12.92C93.2978 12.6267 93.3645 12.3067 93.4978 11.96C93.6578 11.5867 93.8311 11.3067 94.0178 11.12C94.2045 10.8533 94.4311 10.5733 94.6978 10.28C94.9911 9.96 95.3111 9.8 95.6578 9.8C95.9245 9.8 96.0845 9.93333 96.1378 10.2C96.1911 10.44 96.2178 10.6533 96.2178 10.84C96.2178 11.5067 96.0445 12.0267 95.6978 12.4C95.3511 12.7467 94.9911 13.0133 94.6178 13.2C94.2711 13.3867 94.0978 13.5867 94.0978 13.8L94.7378 14.08L94.9778 13.88L95.0178 13.92H95.0978C95.2578 13.84 95.4178 13.7733 95.5778 13.72C95.7378 13.64 95.9111 13.6 96.0978 13.6C96.2578 13.6 96.4178 13.6533 96.5778 13.76C96.7378 13.84 96.8711 13.92 96.9778 14L97.0178 14.36C97.0445 14.6 96.9378 14.8667 96.6978 15.16C96.4845 15.4267 96.2178 15.7467 95.8978 16.12C95.5778 16.4667 95.2978 16.8933 95.0578 17.4C94.8178 17.88 94.6978 18.44 94.6978 19.08C94.6978 19.24 94.7245 19.4133 94.7778 19.6C94.8578 19.76 95.0045 19.84 95.2178 19.84C95.5378 19.84 95.8978 19.72 96.2978 19.48C96.6978 19.24 97.0978 18.9733 97.4978 18.68C97.8978 18.36 98.2311 18.12 98.4978 17.96L98.6578 18.16C98.6578 18.3467 98.4978 18.5733 98.1778 18.84C97.8578 19.1067 97.4711 19.3733 97.0178 19.64C96.5645 19.9067 96.1245 20.1333 95.6978 20.32C95.2978 20.5067 95.0045 20.6 94.8178 20.6ZM96.2288 23.36C96.0688 23.12 95.9888 22.88 95.9888 22.64C95.9888 22.4533 96.0288 22.28 96.1088 22.12C96.1621 21.96 96.2288 21.8133 96.3088 21.68H96.3488L96.3088 21.64C96.4954 21.3733 96.7888 21.0267 97.1888 20.6C97.6154 20.1733 98.0688 19.7867 98.5488 19.44C99.0288 19.0933 99.4154 18.9067 99.7088 18.88L99.9488 18.72C100.082 18.5067 100.282 18.3067 100.549 18.12C100.842 17.9067 101.095 17.7333 101.309 17.6L101.549 17.64L101.509 17.48L101.629 17.4L101.509 17C101.242 16.8933 100.895 16.76 100.469 16.6C100.069 16.44 99.6954 16.24 99.3488 16C99.0288 15.7333 98.8688 15.4267 98.8688 15.08C98.8688 14.8133 99.1088 14.44 99.5888 13.96C100.069 13.48 100.642 13 101.309 12.52C102.002 12.0133 102.655 11.5867 103.269 11.24C103.909 10.8933 104.362 10.72 104.629 10.72C104.975 10.5867 105.229 10.3733 105.389 10.08C105.549 9.78667 105.695 9.52 105.829 9.28C105.989 9.01333 106.202 8.88 106.469 8.88C106.815 8.88 107.109 9.05333 107.349 9.4C107.615 9.74667 107.802 10.0533 107.909 10.32C107.882 10.4267 107.802 10.52 107.669 10.6C107.562 10.68 107.482 10.7867 107.429 10.92C107.109 11.1867 106.842 11.52 106.629 11.92C106.442 12.2933 106.255 12.6667 106.069 13.04L105.349 13.44L105.229 13.28H105.189C105.082 13.4133 104.975 13.5333 104.869 13.64C104.762 13.7467 104.682 13.8667 104.629 14C104.522 14.1067 104.415 14.2667 104.309 14.48C104.229 14.6667 104.109 14.7733 103.949 14.8L103.909 14.72C104.042 14.2933 104.175 13.8667 104.309 13.44C104.442 12.9867 104.589 12.5467 104.749 12.12L104.829 12.08L104.909 11.48C104.642 11.48 104.389 11.5467 104.149 11.68C103.909 11.8133 103.642 11.8667 103.349 11.84C103.242 11.92 103.055 12.08 102.789 12.32C102.549 12.56 102.309 12.7733 102.069 12.96C101.829 13.1467 101.642 13.2533 101.509 13.28C101.349 13.5733 101.109 13.8533 100.789 14.12C100.495 14.3867 100.349 14.7067 100.349 15.08C100.349 15.24 100.429 15.3467 100.589 15.4C100.749 15.4267 100.895 15.44 101.029 15.44V15.68L101.109 15.64L101.749 15.8L101.869 15.68C102.215 15.76 102.642 15.8933 103.149 16.08C103.682 16.24 104.149 16.4667 104.549 16.76C104.975 17.0533 105.189 17.44 105.189 17.92C105.189 18.1067 105.149 18.2933 105.069 18.48C104.989 18.6667 104.882 18.8533 104.749 19.04L104.109 19.68L103.109 19.6C102.922 19.7333 102.602 19.8533 102.149 19.96C101.695 20.04 101.269 20.12 100.869 20.2C100.495 20.28 100.309 20.3733 100.309 20.48L99.9488 20.16C99.8154 20.4 99.6154 20.52 99.3488 20.52C99.0821 20.52 98.8154 20.52 98.5488 20.52C98.3088 20.52 98.0288 20.6667 97.7088 20.96C97.4154 21.2533 97.1488 21.5733 96.9088 21.92C96.6688 22.2933 96.5221 22.6 96.4688 22.84L96.2288 23.36ZM106.421 29.04C105.941 29.04 105.448 28.8933 104.941 28.6C104.461 28.3067 104.061 27.9333 103.741 27.48C103.421 27.0267 103.261 26.56 103.261 26.08L103.381 25.84C103.675 26.1333 103.888 26.44 104.021 26.76C104.128 27.1067 104.288 27.4 104.501 27.64C104.741 27.88 105.141 28 105.701 28C105.835 28 105.955 27.9867 106.061 27.96C106.168 27.9333 106.275 27.9067 106.381 27.88C106.621 27.96 106.981 27.8 107.461 27.4C107.941 27.0267 108.435 26.5467 108.941 25.96C109.475 25.4 109.928 24.84 110.301 24.28C110.701 23.7467 110.915 23.36 110.941 23.12C111.395 22.5067 111.808 21.8533 112.181 21.16C112.555 20.4933 112.915 19.84 113.261 19.2L113.301 18.68L113.661 18.52L113.621 18.44V17.84L114.581 16.16L114.541 16C113.875 16.8267 113.181 17.68 112.461 18.56C111.768 19.4133 111.061 20.2533 110.341 21.08C110.181 21.24 109.995 21.3333 109.781 21.36C109.568 21.4133 109.355 21.44 109.141 21.44C108.715 21.44 108.395 21.2933 108.181 21C107.968 20.7333 107.861 20.4 107.861 20C107.861 19.4933 107.955 19.0133 108.141 18.56C108.355 18.08 108.581 17.64 108.821 17.24L108.781 17.12C108.995 16.9333 109.155 16.68 109.261 16.36C109.395 16.0133 109.541 15.72 109.701 15.48C108.981 15.9867 108.275 16.56 107.581 17.2C106.915 17.84 106.248 18.4667 105.581 19.08L105.541 19C105.541 18.92 105.688 18.7067 105.981 18.36C106.301 17.9867 106.688 17.56 107.141 17.08C107.621 16.6 108.101 16.12 108.581 15.64C109.088 15.1333 109.528 14.6933 109.901 14.32C110.301 13.9467 110.568 13.7067 110.701 13.6L112.101 13.24C112.235 13.1867 112.461 13.24 112.781 13.4C113.101 13.5333 113.261 13.68 113.261 13.84C113.261 14 113.128 14.24 112.861 14.56C112.595 14.8533 112.395 15.0667 112.261 15.2H112.221L112.301 15.36L111.421 16.24L111.381 16.48L111.101 16.56C111.048 16.6133 110.981 16.6933 110.901 16.8C110.848 16.88 110.848 16.9867 110.901 17.12C110.608 17.2267 110.461 17.36 110.461 17.52C110.461 17.5733 110.461 17.64 110.461 17.72C110.488 17.7733 110.515 17.84 110.541 17.92L110.141 18.16L110.221 18.28C110.088 18.3333 110.021 18.48 110.021 18.72L110.061 19.12L110.141 19.24C110.141 19.4 110.115 19.5467 110.061 19.68C110.008 19.8133 109.968 19.96 109.941 20.12L110.021 20.2C110.261 20.1733 110.635 19.9067 111.141 19.4C111.648 18.8667 112.181 18.2267 112.741 17.48C113.301 16.7333 113.795 16.0267 114.221 15.36C114.675 14.6933 114.968 14.2133 115.101 13.92C115.235 13.68 115.368 13.4533 115.501 13.24C115.635 13.0267 115.835 12.92 116.101 12.92H116.461C116.675 12.92 116.901 12.9867 117.141 13.12C117.408 13.2533 117.541 13.4533 117.541 13.72C117.541 13.8533 117.435 14.1733 117.221 14.68C117.008 15.1867 116.741 15.7867 116.421 16.48C116.128 17.1733 115.808 17.8667 115.461 18.56C115.115 19.2533 114.808 19.8533 114.541 20.36C114.275 20.8667 114.088 21.1867 113.981 21.32C113.955 21.48 113.901 21.7067 113.821 22C113.741 22.32 113.621 22.52 113.461 22.6C113.061 23.3467 112.595 24.0267 112.061 24.64C111.555 25.28 111.061 25.9467 110.581 26.64L109.901 26.96C109.795 27.0667 109.701 27.1733 109.621 27.28C109.541 27.4133 109.435 27.52 109.301 27.6H109.181C108.781 28 108.368 28.3333 107.941 28.6C107.541 28.8933 107.035 29.04 106.421 29.04Z" fill="url(#paint0_linear_377_377)"/>
<defs>
<linearGradient id="paint0_linear_377_377" x1="0.5" y1="13" x2="129.5" y2="13" gradientUnits="userSpaceOnUse">
<stop offset="0.125227" stop-color="#6249C5"/>
<stop offset="0.600295" stop-color="#49B2C9"/>
<stop offset="0.770833" stop-color="#74DFF7"/>
<stop offset="1" stop-color="#9747FF"/>
</linearGradient>
</defs>
</svg>
