<svg width="94" height="24" viewBox="0 0 94 24" fill="none" xmlns="http://www.w3.org/2000/svg">
<path d="M7.328 17.224C6.432 17.224 5.55733 17.0747 4.704 16.776C3.872 16.4773 3.17867 16.0187 2.624 15.4C2.09067 14.7813 1.824 14.0133 1.824 13.096C1.824 12.8613 1.84533 12.6373 1.888 12.424C1.952 12.1893 1.99467 11.9547 2.016 11.72C1.504 11.208 1.09867 10.5893 0.8 9.864C0.501333 9.11733 0.352 8.392 0.352 7.688C0.352 7.58133 0.405333 7.368 0.512 7.048C0.618667 6.728 0.746667 6.41867 0.896 6.12C1.04533 5.82133 1.16267 5.64 1.248 5.576H1.28L1.472 5.672C1.57867 5.672 1.65333 5.58667 1.696 5.416C1.73867 5.224 1.78133 5.096 1.824 5.032C2.12267 5.032 2.368 4.91467 2.56 4.68C2.77333 4.424 2.98667 4.2 3.2 4.008L3.328 4.136C3.47733 4.05067 3.744 3.93333 4.128 3.784C4.53333 3.61333 4.90667 3.44267 5.248 3.272C5.58933 3.08 5.73867 2.89867 5.696 2.728C6.18667 2.536 6.816 2.39733 7.584 2.312C8.352 2.20533 9.13067 2.14133 9.92 2.12C10.7093 2.07733 11.36 2.056 11.872 2.056C12.576 2.056 13.3867 2.14133 14.304 2.312C15.2427 2.46133 16.1707 2.70667 17.088 3.048C18.0267 3.368 18.8587 3.79467 19.584 4.328C20.3307 4.84 20.864 5.46933 21.184 6.216L21.248 6.248L20.992 6.472L21.152 6.536L20.928 6.76L21.568 7.336L20.992 7.656L21.216 7.784H21.184C21.2267 8.104 21.1307 8.456 20.896 8.84C20.6613 9.224 20.3627 9.61867 20 10.024C19.6587 10.4293 19.3067 10.8133 18.944 11.176C18.6027 11.5173 18.3253 11.8053 18.112 12.04C17.92 12.0613 17.7387 12.1147 17.568 12.2C17.4187 12.2853 17.248 12.3493 17.056 12.392L15.872 13.288L15.488 13.608L15.776 13.768L15.2 13.96L14.976 14.184L14.816 14.12C14.56 14.248 14.4427 14.3867 14.464 14.536C14.4853 14.664 14.4107 14.8133 14.24 14.984L14.176 14.92L14.08 15.144L13.664 15.464L13.216 15.432C13.5573 15.1973 13.8347 14.9413 14.048 14.664C13.856 14.728 13.6427 14.8133 13.408 14.92C13.1733 15.0267 13.0027 15.176 12.896 15.368L13.12 15.656L13.44 15.816L12.768 15.912L12.544 15.528L12.384 15.464L12.32 15.656L12.416 15.816L12.32 16.04C12.192 16.0827 12.0853 16.1467 12 16.232C11.9147 16.296 11.8187 16.3707 11.712 16.456C11.2427 16.4133 10.7307 16.4987 10.176 16.712C9.62133 16.9253 9.088 17.032 8.576 17.032L8.288 17.16C8.13867 17.1813 7.97867 17.192 7.808 17.192C7.65867 17.2133 7.49867 17.224 7.328 17.224ZM6.88 15.784C8.01067 15.72 9.14133 15.4853 10.272 15.08C11.424 14.6747 12.5227 14.1413 13.568 13.48C14.6133 12.8187 15.5413 12.0613 16.352 11.208C17.1627 10.3547 17.7813 9.45867 18.208 8.52L18.144 8.264C18.3787 7.60267 18.496 6.984 18.496 6.408C18.5173 5.49067 18.2293 4.76533 17.632 4.232C17.0347 3.67733 16.2987 3.28267 15.424 3.048C14.5493 2.792 13.6853 2.664 12.832 2.664C11.8507 2.664 10.8267 2.78133 9.76 3.016C8.69333 3.22933 7.68 3.496 6.72 3.816C5.78133 4.136 5.00267 4.44533 4.384 4.744C4.04267 4.91467 3.616 5.20267 3.104 5.608C2.61333 6.01333 2.176 6.51467 1.792 7.112C1.408 7.688 1.216 8.34933 1.216 9.096C1.216 9.82133 1.568 10.4293 2.272 10.92C2.528 10.3227 2.944 9.68267 3.52 9C4.11733 8.31733 4.78933 7.66667 5.536 7.048C6.304 6.408 7.08267 5.864 7.872 5.416C8.68267 4.94667 9.44 4.63733 10.144 4.488L10.784 4.712C11.0613 4.43467 11.456 4.22133 11.968 4.072C12.5013 3.92267 13.056 3.816 13.632 3.752C14.208 3.688 14.688 3.656 15.072 3.656C15.3067 3.656 15.5413 3.69867 15.776 3.784C16.0107 3.86933 16.2347 3.96533 16.448 4.072C16.32 4.09333 16.192 4.11467 16.064 4.136C15.936 4.136 15.7973 4.136 15.648 4.136C15.456 4.136 15.3387 4.14667 15.296 4.168C15.2533 4.18933 15.1147 4.2 14.88 4.2C14.3253 4.2 13.5893 4.37067 12.672 4.712C11.776 5.05333 10.816 5.50133 9.792 6.056C8.78933 6.61067 7.84 7.21867 6.944 7.88C6.048 8.52 5.312 9.16 4.736 9.8C4.18133 10.4187 3.904 10.9627 3.904 11.432C4.20267 11.816 4.576 12.0933 5.024 12.264C5.49333 12.4347 5.87733 12.5733 6.176 12.68C6.38933 12.7227 6.60267 12.7867 6.816 12.872C7.05067 12.9573 7.27467 13.032 7.488 13.096C7.488 13.224 7.34933 13.288 7.072 13.288C6.79467 13.2667 6.44267 13.2347 6.016 13.192C5.78133 13.1493 5.38667 13.0747 4.832 12.968C4.27733 12.84 3.76533 12.6587 3.296 12.424C3.21067 12.5733 3.136 12.7333 3.072 12.904C3.02933 13.0533 3.008 13.2453 3.008 13.48C3.008 14.4613 3.36 15.112 4.064 15.432C4.768 15.7307 5.70667 15.848 6.88 15.784ZM4.96 3.752C5.19467 3.66667 5.36533 3.56 5.472 3.432L5.024 3.56L4.96 3.752ZM3.328 4.52L3.488 4.392L3.456 4.232C3.43467 4.27467 3.41333 4.328 3.392 4.392C3.37067 4.43467 3.34933 4.47733 3.328 4.52ZM18.848 11.048L19.04 10.76L18.56 10.664L18.496 10.76V10.824L18.848 11.048ZM18.304 11.336L18.592 11.272L18.464 11.016L18.304 11.336ZM15.968 13.576L15.936 13.544C16.0427 13.4373 16.16 13.352 16.288 13.288C16.4373 13.224 16.5867 13.16 16.736 13.096H16.768L16.608 13.416C16.5013 13.4587 16.3947 13.4907 16.288 13.512C16.1813 13.512 16.0747 13.5333 15.968 13.576ZM12 15.944L12.256 15.88L12.064 15.656L12 15.848V15.944ZM25.5782 18.888L25.0982 18.12C25.0769 17.992 25.0342 17.864 24.9702 17.736C24.9276 17.608 24.9062 17.4693 24.9062 17.32C24.9062 17.1067 24.9169 16.9147 24.9382 16.744C24.9596 16.552 24.9809 16.3493 25.0022 16.136L25.2262 15.624L25.1942 15.56C25.2369 15.4747 25.2689 15.3893 25.2902 15.304C25.3329 15.1973 25.3649 15.1013 25.3862 15.016L25.2582 14.92C25.1089 14.92 24.8956 15.0693 24.6182 15.368C24.3622 15.6453 24.0636 15.9227 23.7222 16.2C23.4022 16.4773 23.0289 16.616 22.6022 16.616C22.3249 16.616 22.0689 16.5307 21.8342 16.36C21.5996 16.1893 21.4929 15.9333 21.5142 15.592L21.4822 15.528C21.7169 15.1013 21.9196 14.664 22.0902 14.216C22.2609 13.768 22.4422 13.3307 22.6342 12.904L22.4422 12.552L22.3462 12.584L22.1862 12.52L21.8662 12.84L21.4182 12.936L21.4822 13.096H21.4182L21.0982 13.192L21.0342 13.32H20.8422L20.8102 13.512C20.7036 13.6187 20.5862 13.736 20.4582 13.864C20.3302 13.992 20.1809 14.0667 20.0102 14.088L18.0902 15.912L18.0582 15.816C18.0582 15.6667 18.1116 15.5493 18.2182 15.464C18.3249 15.3573 18.4209 15.2613 18.5062 15.176L18.5382 15.112L18.6342 15.048L18.6662 15.08L18.7622 14.856H18.7302C18.7729 14.8133 18.8156 14.76 18.8582 14.696C18.9222 14.6107 18.9969 14.568 19.0822 14.568H19.1462C19.1462 14.568 19.1462 14.5467 19.1462 14.504C19.2742 14.312 19.4449 14.1413 19.6582 13.992H19.7542L19.8502 13.896L19.8182 13.832L20.1382 13.704C20.1169 13.4907 20.2876 13.256 20.6502 13C21.0129 12.744 21.4076 12.52 21.8342 12.328C22.2609 12.1147 22.5596 12.008 22.7302 12.008C22.9649 12.008 23.2422 12.072 23.5622 12.2C23.8822 12.3067 24.0422 12.5093 24.0422 12.808C24.0422 13.4053 23.9356 13.8853 23.7222 14.248C23.5089 14.6107 23.3916 14.8453 23.3702 14.952L23.4662 15.016C23.7222 15.016 23.9249 14.9413 24.0742 14.792C24.2236 14.6213 24.3729 14.4507 24.5222 14.28C24.6929 14.1093 24.8956 14.0133 25.1302 13.992C25.1089 13.9707 25.1196 13.96 25.1622 13.96C25.2049 13.9387 25.2262 13.9493 25.2262 13.992C25.3116 13.8427 25.5036 13.608 25.8022 13.288C26.1009 12.9467 26.4102 12.6267 26.7302 12.328C27.0502 12.0293 27.2742 11.88 27.4022 11.88C27.6369 11.88 27.9036 11.9653 28.2022 12.136C28.5009 12.3067 28.6502 12.52 28.6502 12.776C28.6502 12.8827 28.5649 13.0853 28.3942 13.384C28.2449 13.6613 28.0636 13.96 27.8502 14.28C27.6369 14.6 27.4236 14.888 27.2102 15.144C27.0182 15.3787 26.8689 15.5173 26.7622 15.56C26.5702 15.9013 26.3036 16.296 25.9622 16.744C25.6422 17.1707 25.4822 17.5973 25.4822 18.024C25.4822 18.1733 25.5036 18.312 25.5462 18.44C25.5889 18.568 25.6102 18.696 25.6102 18.824L25.5782 18.888ZM29.808 18.344C29.4667 18.344 29.1893 18.1947 28.976 17.896C28.7627 17.6187 28.656 17.3093 28.656 16.968C28.656 16.712 28.7307 16.328 28.88 15.816C29.0507 15.2827 29.2533 14.728 29.488 14.152C29.7227 13.5547 29.968 13.0213 30.224 12.552C30.48 12.0827 30.7147 11.7733 30.928 11.624C31.2267 11.1547 31.4933 10.7173 31.728 10.312C31.3867 10.376 31.0453 10.4507 30.704 10.536C30.3627 10.6 30.0427 10.696 29.744 10.824C29.5947 11.016 29.424 11.112 29.232 11.112C29.168 11.0693 29.0933 11.0267 29.008 10.984C28.9227 10.9413 28.848 10.888 28.784 10.824L28.816 10.76H28.784V10.696C28.784 10.5893 28.7627 10.4933 28.72 10.408C28.6987 10.3013 28.6773 10.2053 28.656 10.12C28.6347 10.0987 28.624 10.0453 28.624 9.96C28.624 9.68267 28.752 9.50133 29.008 9.416C29.2853 9.33067 29.5627 9.288 29.84 9.288C30.2453 9.288 30.5227 9.32 30.672 9.384L30.992 9.32H31.792C31.9413 9.32 32.08 9.32 32.208 9.32C32.336 9.32 32.464 9.30933 32.592 9.288L32.72 9.096L32.688 8.968C32.752 8.81867 32.8907 8.57333 33.104 8.232C33.3173 7.89067 33.5413 7.528 33.776 7.144C34.0107 6.76 34.2133 6.42933 34.384 6.152C34.576 5.85333 34.672 5.704 34.672 5.704C34.672 5.576 34.7787 5.50133 34.992 5.48C35.2053 5.45867 35.344 5.448 35.408 5.448C35.6427 5.448 35.9627 5.52267 36.368 5.672C36.7733 5.8 36.976 6.024 36.976 6.344C36.976 6.536 36.9013 6.696 36.752 6.824C36.6027 6.93067 36.4427 7.00533 36.272 7.048V7.08C36.272 7.208 36.176 7.35733 35.984 7.528C35.8133 7.69867 35.6107 7.848 35.376 7.976C35.1413 8.104 34.96 8.18933 34.832 8.232C34.768 8.25333 34.6827 8.33867 34.576 8.488C34.4907 8.616 34.4267 8.712 34.384 8.776V8.904C34.2987 8.968 34.2027 9.04267 34.096 9.128C34.0107 9.192 33.936 9.27733 33.872 9.384C33.9787 9.40533 34.0853 9.416 34.192 9.416C34.2987 9.416 34.4053 9.416 34.512 9.416C34.6827 9.416 34.8427 9.416 34.992 9.416C35.1627 9.416 35.3227 9.42667 35.472 9.448L36.464 9.576C36.208 9.78933 35.92 9.91733 35.6 9.96C35.28 9.98133 34.9493 9.992 34.608 9.992C34.288 9.97067 33.9787 10.024 33.68 10.152C33.5307 10.1947 33.328 10.3227 33.072 10.536C32.8373 10.7493 32.624 10.984 32.432 11.24C32.24 11.4747 32.144 11.6773 32.144 11.848L31.408 12.84C31.1947 12.9467 31.088 13.1067 31.088 13.32C31.088 13.5333 30.9707 13.64 30.736 13.64L30.288 14.664C30.2667 14.792 30.2347 14.9947 30.192 15.272C30.1707 15.528 30.0853 15.6773 29.936 15.72C29.936 15.9973 29.9253 16.2747 29.904 16.552C29.8827 16.808 29.872 17.064 29.872 17.32L29.936 17.448H30.192C30.6187 17.0213 31.056 16.616 31.504 16.232C31.9733 15.8267 32.4107 15.4 32.816 14.952L32.976 14.888H33.04L33.232 14.632L33.36 14.568L33.328 14.536L33.52 14.376C33.6907 14.056 33.968 13.7893 34.352 13.576L34.384 13.64C34.384 13.7467 34.2453 13.9813 33.968 14.344C33.6907 14.6853 33.3387 15.0907 32.912 15.56C32.5067 16.008 32.08 16.4453 31.632 16.872C31.2053 17.2987 30.8213 17.6507 30.48 17.928C30.1387 18.2053 29.9147 18.344 29.808 18.344ZM40.514 19.176L39.746 19.08C39.49 18.9093 39.2873 18.6853 39.138 18.408C39.01 18.152 38.8927 17.896 38.786 17.64H38.626C38.2633 17.64 38.0287 17.704 37.922 17.832C37.8367 17.9813 37.7513 18.12 37.666 18.248C37.5807 18.3973 37.3673 18.472 37.026 18.472C36.7913 18.472 36.546 18.44 36.29 18.376C36.034 18.3333 35.778 18.312 35.522 18.312C35.3727 18.312 35.234 18.3333 35.106 18.376C34.9993 18.4187 34.8713 18.44 34.722 18.44C34.402 18.44 34.0607 18.3867 33.698 18.28C33.3353 18.1733 33.0153 18.0027 32.738 17.768C32.482 17.5333 32.354 17.2347 32.354 16.872C32.354 16.36 32.5567 15.9547 32.962 15.656C33.3887 15.336 33.826 15.144 34.274 15.08L34.21 15.144C33.9753 15.2933 33.698 15.4853 33.378 15.72C33.058 15.9333 32.898 16.2107 32.898 16.552C32.898 16.8507 33.0793 17.0853 33.442 17.256C33.826 17.4267 34.146 17.512 34.402 17.512L34.562 17.448C34.818 17.512 35.1167 17.544 35.458 17.544C35.97 17.544 36.5033 17.5013 37.058 17.416C37.634 17.3307 38.114 17.2453 38.498 17.16V16.936C38.306 16.6587 38.21 16.392 38.21 16.136L38.562 15.272L38.338 14.952L38.626 14.408V14.312L38.37 14.28L38.21 14.408V14.376L38.338 14.184C38.274 13.9067 38.3167 13.5973 38.466 13.256C38.6367 12.9147 38.8073 12.5733 38.978 12.232C39.17 11.8693 39.266 11.5493 39.266 11.272C39.4367 11.1227 39.6287 10.8347 39.842 10.408C40.0767 9.96 40.3007 9.50133 40.514 9.032C40.7273 8.56267 40.898 8.21067 41.026 7.976C41.4313 7.16533 41.89 6.38667 42.402 5.64C42.914 4.872 43.458 4.12533 44.034 3.4C43.8207 3.464 43.6073 3.528 43.394 3.592C43.202 3.656 42.9887 3.688 42.754 3.688C42.6047 3.79467 42.2953 3.912 41.826 4.04C41.3567 4.168 40.8553 4.30667 40.322 4.456C39.81 4.584 39.362 4.72267 38.978 4.872C38.594 5 38.402 5.128 38.402 5.256L38.498 5.416L39.01 5.064L39.138 5.128L39.33 4.968L39.362 5.096C39.362 5.352 39.298 5.576 39.17 5.768L39.042 5.48L38.754 5.672L38.818 5.896L38.626 5.96C38.7327 6.024 38.818 6.10933 38.882 6.216C38.9673 6.32267 39.042 6.42933 39.106 6.536C38.6153 6.55733 38.146 6.728 37.698 7.048C37.2713 7.34667 36.8127 7.528 36.322 7.592C36.2153 7.74133 36.0767 7.83733 35.906 7.88C35.7353 7.92267 35.5647 7.944 35.394 7.944C35.2873 7.944 35.1273 7.848 34.914 7.656C34.7007 7.44267 34.5087 7.21867 34.338 6.984C34.1887 6.728 34.114 6.54667 34.114 6.44C34.114 6.20533 34.2527 5.96 34.53 5.704C34.8073 5.448 35.0207 5.256 35.17 5.128L34.818 5.768C35.074 5.59733 35.4367 5.416 35.906 5.224C36.3753 5.032 36.8553 4.85067 37.346 4.68C37.858 4.488 38.3167 4.30667 38.722 4.136C39.1273 3.944 39.4047 3.784 39.554 3.656C40.386 3.42133 41.2287 3.208 42.082 3.016C42.9567 2.80267 43.8207 2.65333 44.674 2.568C44.7807 2.44 44.9513 2.248 45.186 1.992C45.442 1.71467 45.698 1.46933 45.954 1.256C46.21 1.02133 46.4233 0.903999 46.594 0.903999C46.978 0.903999 47.3193 0.925332 47.618 0.967999C47.9167 0.989333 48.1407 1.20267 48.29 1.608C48.29 1.84267 48.194 2.056 48.002 2.248C47.8313 2.41867 47.6607 2.55733 47.49 2.664L47.81 2.728C47.9807 2.664 48.1193 2.55733 48.226 2.408L48.418 2.376H48.482C48.61 2.376 48.7167 2.408 48.802 2.472C48.9087 2.536 49.0047 2.61067 49.09 2.696L49.442 2.536C49.9753 2.536 50.626 2.67467 51.394 2.952C52.162 3.208 52.9193 3.56 53.666 4.008C54.434 4.456 55.0633 4.968 55.554 5.544C56.066 6.09867 56.322 6.68533 56.322 7.304C56.322 7.58133 56.3007 7.85867 56.258 8.136C56.2153 8.392 56.1727 8.648 56.13 8.904L55.938 8.84L55.778 8.968V9.032L56.034 9.32C55.8847 9.78933 55.65 10.2373 55.33 10.664C55.0313 11.0693 54.7007 11.432 54.338 11.752C53.9967 11.8373 53.6553 12.0613 53.314 12.424C52.9727 12.7867 52.6207 13.0533 52.258 13.224C52.0233 13.5013 51.778 13.6933 51.522 13.8C51.266 13.9067 51.0207 14.1413 50.786 14.504L50.498 14.216L50.434 14.312L50.466 14.504C50.466 14.6747 50.306 14.76 49.986 14.76C49.9007 14.76 49.8153 14.76 49.73 14.76C49.666 14.7387 49.6127 14.728 49.57 14.728L49.41 14.888L49.442 15.144C49.4207 15.1653 49.314 15.24 49.122 15.368C48.9513 15.496 48.866 15.5067 48.866 15.4H48.802C48.4393 15.6133 48.1087 15.816 47.81 16.008L47.586 15.848L47.426 16.136C47.4047 16.0933 47.362 16.0293 47.298 15.944C47.234 15.8373 47.1593 15.7733 47.074 15.752L46.722 16.136H46.69L46.306 15.944L45.954 16.2L45.794 16.072L45.25 16.328L45.282 16.36H45.506L45.698 16.552V16.584H45.602L45.09 16.456L44.738 16.584L44.546 16.552C44.7593 16.3813 45.0047 16.232 45.282 16.104L45.09 16.008L44.674 16.328L44.386 16.2V16.328C44.194 16.3707 44.0553 16.456 43.97 16.584V16.872L43.842 16.904L43.49 16.744C43.3833 16.7867 43.2767 16.8293 43.17 16.872C43.0847 16.9147 42.9993 16.968 42.914 17.032C42.4873 17.0747 42.0713 17.1813 41.666 17.352C41.2607 17.544 40.834 17.64 40.386 17.64L40.13 17.512L40.098 18.312L40.322 18.792H40.354L40.546 19.08V19.112L40.514 19.176ZM40.162 16.68C41.8687 16.168 43.522 15.5493 45.122 14.824C46.7433 14.0773 48.3327 13.2773 49.89 12.424L50.05 12.456L50.21 12.424L50.178 12.296L50.274 12.168L50.434 12.296L50.818 12.008L50.786 11.944L50.594 11.88C50.658 11.7093 50.9247 11.496 51.394 11.24C51.8633 10.9627 52.3753 10.6427 52.93 10.28C53.506 9.896 54.0073 9.45867 54.434 8.968C54.8607 8.456 55.074 7.86933 55.074 7.208C55.074 6.48267 54.8713 5.88533 54.466 5.416C54.0607 4.92533 53.538 4.53067 52.898 4.232C52.258 3.93333 51.554 3.70933 50.786 3.56C50.0393 3.41067 49.314 3.304 48.61 3.24C47.906 3.176 47.298 3.144 46.786 3.144C46.5727 3.35733 46.4127 3.58133 46.306 3.816C46.2207 4.02933 46.1033 4.21067 45.954 4.36C45.8047 4.50933 45.5487 4.584 45.186 4.584L44.93 4.808V5.128C44.61 5.27733 44.3753 5.56533 44.226 5.992C44.0767 6.39733 43.8953 6.73867 43.682 7.016L43.618 7.272L43.714 7.368L43.106 8.392L43.042 8.648L42.914 8.552C42.914 8.68 42.8287 8.94667 42.658 9.352C42.4873 9.736 42.2847 10.1733 42.05 10.664C41.8153 11.1333 41.602 11.592 41.41 12.04C41.2393 12.488 41.1327 12.8293 41.09 13.064C40.9407 13.2133 40.802 13.544 40.674 14.056C40.546 14.5467 40.4393 15.048 40.354 15.56C40.2687 16.072 40.2047 16.4453 40.162 16.68ZM45.666 15.944C45.8367 15.88 45.9967 15.7733 46.146 15.624L46.018 15.56C45.9327 15.5813 45.8473 15.624 45.762 15.688C45.698 15.7307 45.6233 15.7733 45.538 15.816L45.666 15.944ZM57.0558 16.264C56.7358 16.264 56.4691 16.1893 56.2558 16.04C56.0424 15.8693 55.8504 15.6453 55.6798 15.368H55.6158L55.6478 15.112L55.5838 15.144V14.952L55.7438 14.824H55.6798L55.4878 14.664H55.5518L55.6158 14.536V14.472L55.5518 14.312V14.248H55.4878L55.0398 14.024V13.928C54.8904 13.7787 54.7624 13.6187 54.6558 13.448C54.5704 13.256 54.5278 13.0533 54.5278 12.84C54.5278 12.5413 54.6558 12.1893 54.9118 11.784C55.1891 11.3787 55.5091 11.016 55.8718 10.696C56.2558 10.376 56.5971 10.216 56.8958 10.216C57.0451 10.0667 57.2584 9.992 57.5358 9.992L57.6318 9.896L57.7918 9.928C58.0264 9.82133 58.2824 9.78933 58.5598 9.832L58.5918 9.768H60.3838C60.5544 9.768 60.7678 9.81067 61.0238 9.896C61.3011 9.98133 61.5144 10.0453 61.6638 10.088C61.8558 10.3013 62.1118 10.472 62.4318 10.6C62.7518 10.7067 62.9118 10.9413 62.9118 11.304C62.9118 11.752 62.7838 12.1787 62.5278 12.584C62.2718 12.9893 61.9731 13.3093 61.6318 13.544H61.5998C61.5784 13.608 61.4718 13.7147 61.2798 13.864C61.1091 13.992 60.9171 14.1307 60.7038 14.28C60.5118 14.408 60.3838 14.504 60.3198 14.568L60.2238 14.856C60.0744 14.856 59.9358 14.9093 59.8078 15.016C59.6798 15.1013 59.6158 15.2187 59.6158 15.368C59.6584 15.4533 59.7544 15.528 59.9038 15.592C60.0531 15.6347 60.1811 15.656 60.2878 15.656L60.1598 15.72C59.4771 15.72 58.9544 15.7733 58.5918 15.88C58.2291 15.9653 57.9411 16.0507 57.7278 16.136C57.5144 16.2213 57.2904 16.264 57.0558 16.264ZM57.9198 15.432C58.5811 15.112 59.0398 14.8667 59.2958 14.696C59.5731 14.504 59.7651 14.344 59.8718 14.216C59.9784 14.0667 60.1171 13.8747 60.2878 13.64C60.4584 13.4053 60.7678 13.0747 61.2158 12.648V12.584C61.1304 12.584 61.0558 12.5733 60.9918 12.552C61.0131 12.36 61.0558 12.1787 61.1198 12.008C61.2051 11.816 61.2478 11.6133 61.2478 11.4C61.2478 11.016 61.0984 10.7067 60.7998 10.472C60.5224 10.216 60.2024 10.088 59.8398 10.088C59.6478 10.088 59.4451 10.1093 59.2318 10.152C59.0398 10.1947 58.8584 10.248 58.6878 10.312L58.2718 10.28C57.9304 10.408 57.5464 10.6 57.1198 10.856C56.7144 11.112 56.3624 11.4213 56.0638 11.784C55.7651 12.1253 55.6158 12.5093 55.6158 12.936C55.6158 13.1493 55.6584 13.3307 55.7438 13.48L55.8718 13.512V13.416L56.0318 13.32L56.2558 12.84V12.712L56.4478 12.424L56.5118 12.456L56.6078 12.264L56.7678 12.168V12.136C56.8318 12.1147 56.8958 12.0933 56.9598 12.072C57.0451 12.0507 57.1198 12.0187 57.1838 11.976C57.1838 11.8053 57.2584 11.7093 57.4078 11.688C57.5571 11.6453 57.6424 11.5493 57.6638 11.4H57.8558L58.0798 11.144L58.2078 11.24L58.4958 11.048H58.7838V11.144C58.4638 11.2293 58.1118 11.464 57.7278 11.848C57.3438 12.2107 57.0238 12.616 56.7678 13.064C56.5118 13.512 56.3944 13.9173 56.4158 14.28L56.4478 14.856C56.6824 14.9627 56.9171 15.0907 57.1518 15.24C57.3864 15.368 57.6424 15.432 57.9198 15.432ZM56.9918 15.656L57.1838 15.56L56.4478 15.208L56.3838 15.24L56.5118 15.528L56.9918 15.656ZM65.172 16.264C64.852 16.264 64.5853 16.1893 64.372 16.04C64.1587 15.8693 63.9667 15.6453 63.796 15.368H63.732L63.764 15.112L63.7 15.144V14.952L63.86 14.824H63.796L63.604 14.664H63.668L63.732 14.536V14.472L63.668 14.312V14.248H63.604L63.156 14.024V13.928C63.0067 13.7787 62.8787 13.6187 62.772 13.448C62.6867 13.256 62.644 13.0533 62.644 12.84C62.644 12.5413 62.772 12.1893 63.028 11.784C63.3053 11.3787 63.6253 11.016 63.988 10.696C64.372 10.376 64.7133 10.216 65.012 10.216C65.1613 10.0667 65.3747 9.992 65.652 9.992L65.748 9.896L65.908 9.928C66.1427 9.82133 66.3987 9.78933 66.676 9.832L66.708 9.768H68.5C68.6707 9.768 68.884 9.81067 69.14 9.896C69.4173 9.98133 69.6307 10.0453 69.78 10.088C69.972 10.3013 70.228 10.472 70.548 10.6C70.868 10.7067 71.028 10.9413 71.028 11.304C71.028 11.752 70.9 12.1787 70.644 12.584C70.388 12.9893 70.0893 13.3093 69.748 13.544H69.716C69.6947 13.608 69.588 13.7147 69.396 13.864C69.2253 13.992 69.0333 14.1307 68.82 14.28C68.628 14.408 68.5 14.504 68.436 14.568L68.34 14.856C68.1907 14.856 68.052 14.9093 67.924 15.016C67.796 15.1013 67.732 15.2187 67.732 15.368C67.7747 15.4533 67.8707 15.528 68.02 15.592C68.1693 15.6347 68.2973 15.656 68.404 15.656L68.276 15.72C67.5933 15.72 67.0707 15.7733 66.708 15.88C66.3453 15.9653 66.0573 16.0507 65.844 16.136C65.6307 16.2213 65.4067 16.264 65.172 16.264ZM66.036 15.432C66.6973 15.112 67.156 14.8667 67.412 14.696C67.6893 14.504 67.8813 14.344 67.988 14.216C68.0947 14.0667 68.2333 13.8747 68.404 13.64C68.5747 13.4053 68.884 13.0747 69.332 12.648V12.584C69.2467 12.584 69.172 12.5733 69.108 12.552C69.1293 12.36 69.172 12.1787 69.236 12.008C69.3213 11.816 69.364 11.6133 69.364 11.4C69.364 11.016 69.2147 10.7067 68.916 10.472C68.6387 10.216 68.3187 10.088 67.956 10.088C67.764 10.088 67.5613 10.1093 67.348 10.152C67.156 10.1947 66.9747 10.248 66.804 10.312L66.388 10.28C66.0467 10.408 65.6627 10.6 65.236 10.856C64.8307 11.112 64.4787 11.4213 64.18 11.784C63.8813 12.1253 63.732 12.5093 63.732 12.936C63.732 13.1493 63.7747 13.3307 63.86 13.48L63.988 13.512V13.416L64.148 13.32L64.372 12.84V12.712L64.564 12.424L64.628 12.456L64.724 12.264L64.884 12.168V12.136C64.948 12.1147 65.012 12.0933 65.076 12.072C65.1613 12.0507 65.236 12.0187 65.3 11.976C65.3 11.8053 65.3747 11.7093 65.524 11.688C65.6733 11.6453 65.7587 11.5493 65.78 11.4H65.972L66.196 11.144L66.324 11.24L66.612 11.048H66.9V11.144C66.58 11.2293 66.228 11.464 65.844 11.848C65.46 12.2107 65.14 12.616 64.884 13.064C64.628 13.512 64.5107 13.9173 64.532 14.28L64.564 14.856C64.7987 14.9627 65.0333 15.0907 65.268 15.24C65.5027 15.368 65.7587 15.432 66.036 15.432ZM65.108 15.656L65.3 15.56L64.564 15.208L64.5 15.24L64.628 15.528L65.108 15.656ZM75.6563 16.68C75.3363 16.68 75.0909 16.552 74.9203 16.296L74.1843 15.944C74.0989 15.752 74.0563 15.5173 74.0563 15.24C74.0563 14.792 74.1629 14.312 74.3763 13.8C74.6109 13.2667 74.8349 12.8187 75.0483 12.456C74.8989 12.3707 74.7709 12.264 74.6643 12.136C74.5576 12.008 74.4509 11.88 74.3443 11.752L74.2483 11.688C74.1629 11.7733 74.0669 11.848 73.9603 11.912C73.8536 11.976 73.7469 12.0187 73.6403 12.04C73.4483 12.232 73.1709 12.552 72.8083 13C72.4456 13.4267 72.0509 13.8747 71.6243 14.344C71.1976 14.792 70.7816 15.1867 70.3763 15.528C69.9923 15.8693 69.6829 16.04 69.4483 16.04L69.4163 15.976C69.4376 15.848 69.5336 15.7093 69.7043 15.56C69.8963 15.3893 70.0349 15.2613 70.1203 15.176C70.1629 15.0053 70.2696 14.856 70.4403 14.728C70.6109 14.6 70.7709 14.504 70.9203 14.44H70.9523L71.1443 14.152L71.3043 14.056L71.2723 14.024L71.4963 13.864C71.5389 13.7573 71.6029 13.6613 71.6883 13.576C71.7736 13.4907 71.8483 13.4053 71.9123 13.32V13.256C72.3816 12.8933 72.8083 12.4987 73.1923 12.072C73.5976 11.624 74.0136 11.1867 74.4403 10.76L74.4723 10.728L74.4403 10.536C74.4403 10.3013 74.4936 10.0453 74.6003 9.768C74.7283 9.46933 74.8669 9.24533 75.0163 9.096C75.1656 8.88267 75.3469 8.65867 75.5603 8.424C75.7949 8.168 76.0509 8.04 76.3283 8.04C76.5416 8.04 76.6696 8.14667 76.7123 8.36C76.7549 8.552 76.7763 8.72267 76.7763 8.872C76.7763 9.40533 76.6376 9.82133 76.3603 10.12C76.0829 10.3973 75.7949 10.6107 75.4963 10.76C75.2189 10.9093 75.0803 11.0693 75.0803 11.24L75.5923 11.464L75.7843 11.304L75.8163 11.336H75.8803C76.0083 11.272 76.1363 11.2187 76.2643 11.176C76.3923 11.112 76.5309 11.08 76.6803 11.08C76.8083 11.08 76.9363 11.1227 77.0643 11.208C77.1923 11.272 77.2989 11.336 77.3843 11.4L77.4163 11.688C77.4376 11.88 77.3523 12.0933 77.1603 12.328C76.9896 12.5413 76.7763 12.7973 76.5203 13.096C76.2643 13.3733 76.0403 13.7147 75.8483 14.12C75.6563 14.504 75.5603 14.952 75.5603 15.464C75.5603 15.592 75.5816 15.7307 75.6243 15.88C75.6883 16.008 75.8056 16.072 75.9763 16.072C76.2323 16.072 76.5203 15.976 76.8403 15.784C77.1603 15.592 77.4803 15.3787 77.8003 15.144C78.1203 14.888 78.3869 14.696 78.6003 14.568L78.7283 14.728C78.7283 14.8773 78.6003 15.0587 78.3443 15.272C78.0883 15.4853 77.7789 15.6987 77.4163 15.912C77.0536 16.1253 76.7016 16.3067 76.3603 16.456C76.0403 16.6053 75.8056 16.68 75.6563 16.68ZM76.752 18.888C76.624 18.696 76.56 18.504 76.56 18.312C76.56 18.1627 76.592 18.024 76.656 17.896C76.6987 17.768 76.752 17.6507 76.816 17.544H76.848L76.816 17.512C76.9653 17.2987 77.2 17.0213 77.52 16.68C77.8613 16.3387 78.224 16.0293 78.608 15.752C78.992 15.4747 79.3013 15.3253 79.536 15.304L79.728 15.176C79.8347 15.0053 79.9947 14.8453 80.208 14.696C80.4427 14.5253 80.6453 14.3867 80.816 14.28L81.008 14.312L80.976 14.184L81.072 14.12L80.976 13.8C80.7627 13.7147 80.4853 13.608 80.144 13.48C79.824 13.352 79.5253 13.192 79.248 13C78.992 12.7867 78.864 12.5413 78.864 12.264C78.864 12.0507 79.056 11.752 79.44 11.368C79.824 10.984 80.2827 10.6 80.816 10.216C81.3707 9.81067 81.8933 9.46933 82.384 9.192C82.896 8.91467 83.2587 8.776 83.472 8.776C83.7493 8.66933 83.952 8.49867 84.08 8.264C84.208 8.02933 84.3253 7.816 84.432 7.624C84.56 7.41067 84.7307 7.304 84.944 7.304C85.2213 7.304 85.456 7.44267 85.648 7.72C85.8613 7.99733 86.0107 8.24267 86.096 8.456C86.0747 8.54133 86.0107 8.616 85.904 8.68C85.8187 8.744 85.7547 8.82933 85.712 8.936C85.456 9.14933 85.2427 9.416 85.072 9.736C84.9227 10.0347 84.7733 10.3333 84.624 10.632L84.048 10.952L83.952 10.824H83.92C83.8347 10.9307 83.7493 11.0267 83.664 11.112C83.5787 11.1973 83.5147 11.2933 83.472 11.4C83.3867 11.4853 83.3013 11.6133 83.216 11.784C83.152 11.9333 83.056 12.0187 82.928 12.04L82.896 11.976C83.0027 11.6347 83.1093 11.2933 83.216 10.952C83.3227 10.5893 83.44 10.2373 83.568 9.896L83.632 9.864L83.696 9.384C83.4827 9.384 83.28 9.43733 83.088 9.544C82.896 9.65067 82.6827 9.69333 82.448 9.672C82.3627 9.736 82.2133 9.864 82 10.056C81.808 10.248 81.616 10.4187 81.424 10.568C81.232 10.7173 81.0827 10.8027 80.976 10.824C80.848 11.0587 80.656 11.2827 80.4 11.496C80.1653 11.7093 80.048 11.9653 80.048 12.264C80.048 12.392 80.112 12.4773 80.24 12.52C80.368 12.5413 80.4853 12.552 80.592 12.552V12.744L80.656 12.712L81.168 12.84L81.264 12.744C81.5413 12.808 81.8827 12.9147 82.288 13.064C82.7147 13.192 83.088 13.3733 83.408 13.608C83.7493 13.8427 83.92 14.152 83.92 14.536C83.92 14.6853 83.888 14.8347 83.824 14.984C83.76 15.1333 83.6747 15.2827 83.568 15.432L83.056 15.944L82.256 15.88C82.1067 15.9867 81.8507 16.0827 81.488 16.168C81.1253 16.232 80.784 16.296 80.464 16.36C80.1653 16.424 80.016 16.4987 80.016 16.584L79.728 16.328C79.6213 16.52 79.4613 16.616 79.248 16.616C79.0347 16.616 78.8213 16.616 78.608 16.616C78.416 16.616 78.192 16.7333 77.936 16.968C77.7013 17.2027 77.488 17.4587 77.296 17.736C77.104 18.0347 76.9867 18.28 76.944 18.472L76.752 18.888ZM84.873 23.432C84.489 23.432 84.0943 23.3147 83.689 23.08C83.305 22.8453 82.985 22.5467 82.729 22.184C82.473 21.8213 82.345 21.448 82.345 21.064L82.441 20.872C82.6757 21.1067 82.8463 21.352 82.953 21.608C83.0383 21.8853 83.1663 22.12 83.337 22.312C83.529 22.504 83.849 22.6 84.297 22.6C84.4037 22.6 84.4997 22.5893 84.585 22.568C84.6703 22.5467 84.7557 22.5253 84.841 22.504C85.033 22.568 85.321 22.44 85.705 22.12C86.089 21.8213 86.4837 21.4373 86.889 20.968C87.3157 20.52 87.6783 20.072 87.977 19.624C88.297 19.1973 88.4677 18.888 88.489 18.696C88.8517 18.2053 89.1823 17.6827 89.481 17.128C89.7797 16.5947 90.0677 16.072 90.345 15.56L90.377 15.144L90.665 15.016L90.633 14.952V14.472L91.401 13.128L91.369 13C90.8357 13.6613 90.281 14.344 89.705 15.048C89.1503 15.7307 88.585 16.4027 88.009 17.064C87.881 17.192 87.7317 17.2667 87.561 17.288C87.3903 17.3307 87.2197 17.352 87.049 17.352C86.7077 17.352 86.4517 17.2347 86.281 17C86.1103 16.7867 86.025 16.52 86.025 16.2C86.025 15.7947 86.0997 15.4107 86.249 15.048C86.4197 14.664 86.601 14.312 86.793 13.992L86.761 13.896C86.9317 13.7467 87.0597 13.544 87.145 13.288C87.2517 13.0107 87.369 12.776 87.497 12.584C86.921 12.9893 86.3557 13.448 85.801 13.96C85.2677 14.472 84.7343 14.9733 84.201 15.464L84.169 15.4C84.169 15.336 84.2863 15.1653 84.521 14.888C84.777 14.5893 85.0863 14.248 85.449 13.864C85.833 13.48 86.217 13.096 86.601 12.712C87.0063 12.3067 87.3583 11.9547 87.657 11.656C87.977 11.3573 88.1903 11.1653 88.297 11.08L89.417 10.792C89.5237 10.7493 89.705 10.792 89.961 10.92C90.217 11.0267 90.345 11.144 90.345 11.272C90.345 11.4 90.2383 11.592 90.025 11.848C89.8117 12.0827 89.6517 12.2533 89.545 12.36H89.513L89.577 12.488L88.873 13.192L88.841 13.384L88.617 13.448C88.5743 13.4907 88.521 13.5547 88.457 13.64C88.4143 13.704 88.4143 13.7893 88.457 13.896C88.2223 13.9813 88.105 14.088 88.105 14.216C88.105 14.2587 88.105 14.312 88.105 14.376C88.1263 14.4187 88.1477 14.472 88.169 14.536L87.849 14.728L87.913 14.824C87.8063 14.8667 87.753 14.984 87.753 15.176L87.785 15.496L87.849 15.592C87.849 15.72 87.8277 15.8373 87.785 15.944C87.7423 16.0507 87.7103 16.168 87.689 16.296L87.753 16.36C87.945 16.3387 88.2437 16.1253 88.649 15.72C89.0543 15.2933 89.481 14.7813 89.929 14.184C90.377 13.5867 90.7717 13.0213 91.113 12.488C91.4757 11.9547 91.7103 11.5707 91.817 11.336C91.9237 11.144 92.0303 10.9627 92.137 10.792C92.2437 10.6213 92.4037 10.536 92.617 10.536H92.905C93.0757 10.536 93.257 10.5893 93.449 10.696C93.6623 10.8027 93.769 10.9627 93.769 11.176C93.769 11.2827 93.6837 11.5387 93.513 11.944C93.3423 12.3493 93.129 12.8293 92.873 13.384C92.6383 13.9387 92.3823 14.4933 92.105 15.048C91.8277 15.6027 91.5823 16.0827 91.369 16.488C91.1557 16.8933 91.0063 17.1493 90.921 17.256C90.8997 17.384 90.857 17.5653 90.793 17.8C90.729 18.056 90.633 18.216 90.505 18.28C90.185 18.8773 89.8117 19.4213 89.385 19.912C88.9797 20.424 88.585 20.9573 88.201 21.512L87.657 21.768C87.5717 21.8533 87.497 21.9387 87.433 22.024C87.369 22.1307 87.2837 22.216 87.177 22.28H87.081C86.761 22.6 86.4303 22.8667 86.089 23.08C85.769 23.3147 85.3637 23.432 84.873 23.432Z" fill="white"/>
</svg>
